<svg xmlns="http://www.w3.org/2000/svg" width="600" height="400" viewBox="0 0 600 400">
  <rect width="600" height="400" fill="#1a1a2e" />
  <g transform="translate(300, 200)">
    <circle cx="0" cy="0" r="150" fill="#16213e" />
    <path d="M-80,-50 L-40,-50 L-40,-20 L-80,-20 Z" fill="#4e9eff" />
    <path d="M-20,-50 L20,-50 L20,-20 L-20,-20 Z" fill="#4e9eff" />
    <path d="M40,-50 L80,-50 L80,-20 L40,-20 Z" fill="#4e9eff" />
    <path d="M-80,10 L-80,40 L-50,40 L-50,10 Z" fill="#4e9eff" />
    <path d="M-30,10 L-30,40 L20,40 L20,10 Z" fill="#4e9eff" />
    <path d="M40,10 L40,40 L80,40 L80,10 Z" fill="#4e9eff" />
    <circle cx="0" cy="-70" r="15" fill="#7a5af8" />
    <path d="M-15,70 Q0,100 15,70" stroke="#38b000" stroke-width="5" fill="none" />
  </g>
</svg>